<svg id="Caminho_2508" data-name="Caminho 2508" xmlns="http://www.w3.org/2000/svg" xmlns:xlink="http://www.w3.org/1999/xlink" width="160" height="48.731" viewBox="0 0 160 48.731">
  <defs>
    <linearGradient id="linear-gradient" x1="0.208" y1="1.343" x2="0.792" y2="-0.343" gradientUnits="objectBoundingBox">
      <stop offset="0" stop-color="#eeae23"/>
      <stop offset="1" stop-color="#ee7923"/>
    </linearGradient>
  </defs>
  <path id="Caminho_2508-2" data-name="Caminho 2508" d="M1902.044,14358.855a4.6,4.6,0,1,1,4.373,6.06,4.681,4.681,0,0,1-4.373-3.109h-4.689v11.748a8.907,8.907,0,0,0,9.061,8.957h0a4.681,4.681,0,0,1,4.584,4.584,4.67,4.67,0,0,1-1.317,3.267,4.373,4.373,0,0,1-3.267,1.316h0a17.85,17.85,0,0,1-12.96-5.215,17.571,17.571,0,0,1-5.269-12.909v-25.024h0a4.252,4.252,0,0,1,1.317-3.213,4.584,4.584,0,0,1,7.85,3.213v10.326ZM1806,14348.319a4.18,4.18,0,0,1,1.317-3,4.451,4.451,0,0,1,3.266-1.316,4.252,4.252,0,0,1,3.214,1.316,4.43,4.43,0,0,1,1.37,3h0v10.431a18.614,18.614,0,0,1,21.916,2.9A18.254,18.254,0,1,1,1806,14374.5v-26.184Zm-48.943,8.324v-3.688a4.26,4.26,0,0,0,1.791-1.106,4.641,4.641,0,0,0-.053-6.532,4.252,4.252,0,0,0-3.214-1.316,4.451,4.451,0,0,0-3.266,1.316,4.251,4.251,0,0,0-1.317,3.213,4.487,4.487,0,0,0,1.317,3.319,5.661,5.661,0,0,0,1.791,1.106v3.688a4.523,4.523,0,0,0-3.108,4.32v.052h0v27.133h0a4.25,4.25,0,0,0,1.317,3.213,4.5,4.5,0,0,0,3.266,1.37,4.587,4.587,0,0,0,4.583-4.583v-27.185a4.384,4.384,0,0,0-1.37-3.215A4.428,4.428,0,0,0,1757.059,14356.644Zm35.035,31.451v-13.539a8.514,8.514,0,0,0-2.634-6.321,8.836,8.836,0,0,0-6.375-2.635,8.7,8.7,0,0,0-6.375,2.581,8.518,8.518,0,0,0-2.687,6.375v13.539a4.369,4.369,0,0,1-1.317,3.267,4.3,4.3,0,0,1-3.214,1.37,4.533,4.533,0,0,1-3.319-1.37,4.369,4.369,0,0,1-1.317-3.267h0v-13.539a17.33,17.33,0,0,1,5.321-12.907,18.229,18.229,0,0,1,31.136,12.907v13.539a4.577,4.577,0,0,1-1.317,3.267,4.415,4.415,0,0,1-3.266,1.37,4.5,4.5,0,0,1-3.266-1.37A4.414,4.414,0,0,1,1792.093,14388.095Zm91.3-13.539a18.078,18.078,0,0,1-18.123,18.176,17.811,17.811,0,0,1-12.96-5.268,18.381,18.381,0,0,1,.053-25.815,17.727,17.727,0,0,1,12.907-5.216,17.9,17.9,0,0,1,18.123,18.123Zm-9.167,0a9.016,9.016,0,0,0-15.331-6.375,9.035,9.035,0,0,0,6.375,15.384,8.683,8.683,0,0,0,6.375-2.687A8.586,8.586,0,0,0,1874.227,14374.556Zm-41.04,0a8.718,8.718,0,0,0-2.634-6.321,9.1,9.1,0,0,0-12.749-.054,9.035,9.035,0,0,0,6.375,15.384,8.517,8.517,0,0,0,6.375-2.687A8.635,8.635,0,0,0,1833.186,14374.556Z" transform="translate(-1751 -14344)" fill-rule="evenodd" fill="url(#linear-gradient)"/>
</svg>
